<svg xmlns="http://www.w3.org/2000/svg" viewBox="0 0 58.25 58.66"><defs><style>.cls-1,.cls-2{fill:#231f20;stroke:#fff;stroke-miterlimit:10;}.cls-1{stroke-width:0.25px;}.cls-2{stroke-width:0.75px;}</style></defs><title>Asset 15</title><g id="Layer_2" data-name="Layer 2"><g id="Layer_1-2" data-name="Layer 1"><path class="cls-1" d="M57.81,26.8l-8.69-8.06V5.54h-10V9.46L29.12.17.44,26.8a1,1,0,0,0,0,1.42,1,1,0,0,0,1.42.05l3.32-3.08V58.54h48V25.19l3.31,3.08a1,1,0,0,0,1.37-1.47ZM41.12,7.54h6v9.34l-6-5.57Zm-18,49V35.47a.94.94,0,0,1,.94-.93H34.19a.93.93,0,0,1,.93.93V56.54Zm28,0h-14V35.47a2.93,2.93,0,0,0-2.93-2.93H24.06a2.94,2.94,0,0,0-2.94,2.93V56.54h-14V23.33l22-20.43L43.4,16.16l5.72,5.31h0l2,1.86Z"/><path class="cls-1" d="M32,48a1.28,1.28,0,1,0-1.27-1.33A1.29,1.29,0,0,0,32,48Z"/><path class="cls-2" d="M17.4,13.69a1.28,1.28,0,1,0-1.27-1.33A1.29,1.29,0,0,0,17.4,13.69Z"/></g></g></svg>