<svg xmlns="http://www.w3.org/2000/svg" viewBox="0 0 44.25 59.25"><defs><style>.cls-1{fill:#231f20;stroke:#fff;stroke-miterlimit:10;stroke-width:0.25px;}</style></defs><title>Asset 9</title><g id="Layer_2" data-name="Layer 2"><g id="Layer_1-2" data-name="Layer 1"><path class="cls-1" d="M14.39,28.44A1,1,0,0,0,13,29.85l10,10a1,1,0,0,0,.7.29h0a1,1,0,0,0,.8-.42l9.89-9.89A1,1,0,1,0,33,28.4L24.7,36.67V1.12a1,1,0,0,0-2,0V36.75Z"/><path class="cls-1" d="M35.06,18.12h7.06v39h-40v-39h13a1,1,0,1,0,0-2H.12v43h44v-43h-9C33.15,16.12,33.08,18.12,35.06,18.12Z"/><path class="cls-1" d="M30.78,18.7a1.39,1.39,0,1,0-1.39-1.36A1.41,1.41,0,0,0,30.78,18.7Z"/></g></g></svg>