<svg xmlns="http://www.w3.org/2000/svg" viewBox="0 0 60.25 55.25"><defs><style>.cls-1{fill:#231f20;stroke:#fff;stroke-miterlimit:10;stroke-width:0.25px;}</style></defs><title>Asset 3</title><g id="Layer_2" data-name="Layer 2"><g id="Layer_1-2" data-name="Layer 1"><path class="cls-1" d="M47.15,29.12v-9A14.54,14.54,0,0,0,38.62,6.92a20.47,20.47,0,0,0-3.5-1.22V5.12a5,5,0,1,0-10,0v.67A19,19,0,0,0,22,6.92c-4.38,2-8.82,6.89-8.86,13.2v9a22.21,22.21,0,0,1-6.7,16.3A1,1,0,0,0,7,47.11l9.5,1.64c1.76.31,3.39.56,4.94.76a9.88,9.88,0,0,0,17.83,0c1.55-.21,3.17-.46,4.93-.76l9.49-1.64a1,1,0,0,0,.78-.68,1,1,0,0,0-.25-1A22.38,22.38,0,0,1,47.15,29.12Zm-20-24a3,3,0,1,1,6,0v.19a19.79,19.79,0,0,0-6,0Zm3.19,48a8,8,0,0,1-6.42-3.31,62,62,0,0,0,6.41.35,62.57,62.57,0,0,0,6.43-.35A8,8,0,0,1,30.31,53.12Zm13.5-6.34c-1.92.33-3.68.6-5.34.81h0l-2.14.24h0c-.64.07-1.26.12-1.88.16l-.35,0-1.59.08h-.32c-1.24,0-2.47,0-3.71,0h-.34L26.55,48l-.38,0-1.82-.15h-.07l-2.12-.24h0c-1.67-.21-3.44-.48-5.36-.81L9.12,45.46a24,24,0,0,0,6-16.33v-9c0-5.43,3.89-9.64,7.7-11.39a17.72,17.72,0,0,1,3.49-1.18h0a18.27,18.27,0,0,1,7.58-.06h0a18.22,18.22,0,0,1,3.83,1.24,12.72,12.72,0,0,1,7.36,11.4v9a24.33,24.33,0,0,0,6.31,16.33Z"/><path class="cls-1" d="M36.54,11.46a15.27,15.27,0,0,0-12.47,0c-2.19,1-5.92,4-5.95,8.65a1,1,0,0,0,1,1h0a1,1,0,0,0,1-1c0-3.68,3-6,4.79-6.85a13.24,13.24,0,0,1,10.8,0A1,1,0,0,0,37,12.79,1,1,0,0,0,36.54,11.46Z"/><path class="cls-1" d="M4.93,20.42a1,1,0,0,0-1.42,0,11.59,11.59,0,0,0,0,16.38,1,1,0,0,0,1.42,0,1,1,0,0,0,0-1.42,9.57,9.57,0,0,1,0-13.55A1,1,0,0,0,4.93,20.42Z"/><path class="cls-1" d="M8.43,34.81a1,1,0,0,0,.71-.29,1,1,0,0,0,0-1.41,6.57,6.57,0,0,1,0-9.28,1,1,0,0,0,0-1.41,1,1,0,0,0-1.42,0,8.58,8.58,0,0,0,0,12.1A1,1,0,0,0,8.43,34.81Z"/><path class="cls-1" d="M56.74,20.42a1,1,0,0,0-1.42,0,1,1,0,0,0,0,1.41,9.6,9.6,0,0,1,0,13.55,1,1,0,0,0,0,1.42,1,1,0,0,0,1.42,0,11.61,11.61,0,0,0,0-16.38Z"/><path class="cls-1" d="M51.11,22.42a1,1,0,0,0,0,1.41,6.57,6.57,0,0,1,0,9.28,1,1,0,0,0,0,1.41,1,1,0,0,0,1.42,0,8.58,8.58,0,0,0,0-12.1A1,1,0,0,0,51.11,22.42Z"/></g></g></svg>