<svg xmlns="http://www.w3.org/2000/svg" viewBox="0 0 56.25 62.06"><defs><style>.cls-1{fill:#231f20;stroke:#fff;stroke-miterlimit:10;stroke-width:0.25px;}</style></defs><title>Asset 6</title><g id="Layer_2" data-name="Layer 2"><g id="Layer_1-2" data-name="Layer 1"><path class="cls-1" d="M8.12,44V4.88a1,1,0,1,0-2,0V44a7,7,0,1,0,2,0Zm-1,11.92a5,5,0,1,1,5-5A5,5,0,0,1,7.12,55.88Z"/><path class="cls-1" d="M29.12,23.58V4.88a1,1,0,1,0-2,0V23.51a7.2,7.2,0,0,0,0,14.32V56.88a1,1,0,0,0,2,0V37.77a7.19,7.19,0,0,0,0-14.19Zm-1.2,12.3a5.21,5.21,0,1,1,5.2-5.21A5.22,5.22,0,0,1,27.92,35.88Z"/><path class="cls-1" d="M56.12,10.88a7,7,0,1,0-8,6.92V56.88a1,1,0,0,0,2,0V17.8A7,7,0,0,0,56.12,10.88Zm-7,5a5,5,0,1,1,5-5A5,5,0,0,1,49.12,15.88Z"/><path class="cls-1" d="M7.1,2.9A1.4,1.4,0,0,0,8.49,1.53a1.39,1.39,0,1,0-2.78,0A1.42,1.42,0,0,0,7.1,2.9Z"/><path class="cls-1" d="M28,61.71a1.39,1.39,0,1,0-1.38-1.36A1.4,1.4,0,0,0,28,61.71Z"/><path class="cls-1" d="M49.27,61.93a1.41,1.41,0,0,0,1.39-1.36,1.39,1.39,0,1,0-2.78,0A1.41,1.41,0,0,0,49.27,61.93Z"/></g></g></svg>