<svg xmlns="http://www.w3.org/2000/svg" viewBox="0 0 63.68 61.11"><defs><style>.cls-1,.cls-2,.cls-3{fill:#231f20;stroke:#fff;stroke-miterlimit:10;}.cls-1{stroke-width:0.25px;}.cls-2{stroke-width:0.75px;}.cls-3{stroke-width:0.5px;}</style></defs><title>Asset 24</title><g id="Layer_2" data-name="Layer 2"><g id="Layer_1-2" data-name="Layer 1"><path class="cls-1" d="M62.77,36.66H47.63V25.82a.8.8,0,0,0-.38-.66L32.64,15.4V8.82h9.91a.81.81,0,0,0,.8-.81.74.74,0,0,0-.17-.48L40.84,4.44l2.34-3.08a.74.74,0,0,0,.08-.82.75.75,0,0,0-.71-.41H31.84a.75.75,0,0,0-.8.74V15.4L16.43,25.16a.83.83,0,0,0-.38.66V36.66H.91a.81.81,0,0,0-.78.84V59.33a.73.73,0,0,0,.73.75h16v.05l.06-.05H46.77l.06.05v-.05H62.77a.75.75,0,0,0,.79-.7V37.5A.82.82,0,0,0,62.77,36.66ZM16.05,38.27v5.21H1.73V38.27ZM1.73,45.09H16.05V58.47H1.73ZM32.64,1.73h8.28L39.19,4a.8.8,0,0,0,0,1l1.73,2.27H32.64Zm3,56.74h-7.5V52.18h7.5Zm10.44,0H37.19V51.35a.71.71,0,0,0-.67-.77H27.23a.72.72,0,0,0-.74.7v7.19H17.66V26.25l14.18-9.46L46,26.25ZM62,38.27v5.21H47.63V38.27ZM47.63,58.47V45.09H62V58.47Z"/><path class="cls-2" d="M7.94,60.74a1.28,1.28,0,1,0-1.27-1.33A1.29,1.29,0,0,0,7.94,60.74Z"/><path class="cls-2" d="M52.51,38.87a1.27,1.27,0,1,0-1.27-1.32A1.29,1.29,0,0,0,52.51,38.87Z"/><path class="cls-3" d="M20.11,27.77a1.5,1.5,0,1,0,1.49,1.56A1.51,1.51,0,0,0,20.11,27.77Z"/><path class="cls-3" d="M42.91,27.54A1.5,1.5,0,1,0,44.4,29.1,1.52,1.52,0,0,0,42.91,27.54Z"/></g></g></svg>