<svg xmlns="http://www.w3.org/2000/svg" viewBox="0 0 60.25 55.7"><defs><style>.cls-1,.cls-2{fill:#231f20;stroke:#fff;stroke-miterlimit:10;}.cls-1{stroke-width:0.25px;}.cls-2{stroke-width:0.75px;}</style></defs><title>Asset 32</title><g id="Layer_2" data-name="Layer 2"><g id="Layer_1-2" data-name="Layer 1"><path class="cls-1" d="M55.14,43l-9.55-4.77a2.64,2.64,0,0,1-1.47-2.37V32.49c.23-.28.48-.6.72-1a22.83,22.83,0,0,0,3-5.8,4,4,0,0,0,2.32-3.62v-4a4,4,0,0,0-1-2.62V10.18A8.92,8.92,0,0,0,47,3.66C45,1.31,41.65.12,37.12.12s-7.85,1.19-9.9,3.53a8.72,8.72,0,0,0-2.07,4.81,12.92,12.92,0,0,0-6-1.34c-10.38,0-11,8.86-11,9V20.7a3.55,3.55,0,0,0-1,2.33v3.46a3.56,3.56,0,0,0,1.32,2.76,15.34,15.34,0,0,0,3.64,6.29v2.74a2.19,2.19,0,0,1-1.17,1.92L4.26,44.37a7.93,7.93,0,0,0-4.14,7v3.79h60v-4A9,9,0,0,0,55.14,43Zm-41,7.88v2.23h-12V51.33A5.94,5.94,0,0,1,5.27,46.1l6.65-4.18a4.15,4.15,0,0,0,2.16-3.64V34.69l-.32-.3a13.27,13.27,0,0,1-3.47-5.95L10.2,28l-.34-.22a1.6,1.6,0,0,1-.74-1.33V23a1.75,1.75,0,0,1,.68-1.17l.32-.3V16.18c0-.28.54-7.06,9-7.06a10.4,10.4,0,0,1,6,1.65V15.5a4,4,0,0,0-1,2.62v4a3.82,3.82,0,0,0,.11.9c0,.11.08.22.11.33a4.24,4.24,0,0,0,.18.5h0a4,4,0,0,0,1.1,1.37s0,0,0,.06c.06.23.12.46.19.68l.08.26a1.21,1.21,0,0,0,.05.14c0,.11.07.21.1.32s.12.36.2.55l.09.24.25.61.06.15.06.12.08.17c.1.21.19.42.29.62l.05.1.19.36c.11.21.21.4.32.59l.15.27c.15.25.28.47.42.68l.08.14c.24.37.45.68.63.91a1.25,1.25,0,0,0,.12.17l.07.1v3.31a2.64,2.64,0,0,1-1.37,2.32L25.1,39.54l-.46,0-.19.4L18.83,43A9,9,0,0,0,14.12,50.89Zm44,2.23h-42V50.89a7,7,0,0,1,3.66-6.17l8.92-4.86a4.64,4.64,0,0,0,2.42-4.08v-4h0l-.19-.23,0-.05-.16-.21,0,0L30.52,31h0c-.15-.2-.34-.47-.54-.8l0,0-.31-.49,0,0c-.23-.38-.47-.81-.71-1.29h0c-.12-.25-.25-.52-.37-.8h0l-.06-.12h0c0-.12-.11-.25-.16-.39l-.06-.15c-.05-.13-.11-.26-.16-.41s-.2-.56-.29-.85l-.06-.18a.14.14,0,0,0,0-.06c-.09-.32-.18-.64-.26-1l-.09-.4-.34-.22a2,2,0,0,1-.93-1.68v-4a2,2,0,0,1,.68-1.47l.32-.3V9.77l0,0A6.93,6.93,0,0,1,28.72,5c1.66-1.89,4.49-2.85,8.4-2.85s6.73,1,8.39,2.83a7,7,0,0,1,1.62,5v6.36l.34.3a2,2,0,0,1,.66,1.47v4A2,2,0,0,1,46.7,24l-.5.16-.16.49a20.78,20.78,0,0,1-2.83,5.72,13,13,0,0,1-.84,1.07l-.25.29v4.12A4.65,4.65,0,0,0,44.69,40l9.55,4.77a7,7,0,0,1,3.88,6.28Z"/><path class="cls-2" d="M50.57,55.32A1.27,1.27,0,1,0,49.3,54,1.29,1.29,0,0,0,50.57,55.32Z"/></g></g></svg>