<svg xmlns="http://www.w3.org/2000/svg" viewBox="0 0 64.41 61.39"><defs><style>.cls-1{fill:#231f20;stroke:#fff;stroke-miterlimit:10;stroke-width:0.5px;}</style></defs><title>Asset 68</title><g id="Layer_2" data-name="Layer 2"><g id="Layer_1-2" data-name="Layer 1"><path class="cls-1" d="M12.89,45.39a1.27,1.27,0,0,0-1.77,0l-2.71,2.7a1.27,1.27,0,0,0,0,1.77l3.39,3.39a1.27,1.27,0,0,0,1.77,0l2.71-2.7a1.28,1.28,0,0,0,0-1.78Zm-.2,5.2L11.07,49l.93-.93,1.62,1.61Z"/><path class="cls-1" d="M15.58,42.7a1.25,1.25,0,0,0-1.77,1.77l3.38,3.39c1.12,1.12,2.92-.63,1.78-1.77Z"/><path class="cls-1" d="M63.79,7.49,62.46,6.16l.06,0c1.11-.67,1.23-1.44,1.14-2-.22-1.24-1.72-1.51-2.21-1.6a17,17,0,0,0-2.79-.2L56.92.62a1.25,1.25,0,0,0-1.77,1.77l.18.19-.82.11L53.2,1.38a1.25,1.25,0,0,0-1.77,1.77l.2.2a7.43,7.43,0,0,0-.8.3L50,2.82a1.26,1.26,0,0,0-1.78,1.77c.69.39.34.57.23,1.13l-.61,2.94L32,24.49a20.61,20.61,0,0,1-.16-4.33h0A12.9,12.9,0,0,1,35,12.82a1.27,1.27,0,0,0-.78-2c-6.16-1.05-12.59,8.6-13.54,12.79a11.91,11.91,0,0,1-1,3.58c-1,1.63-3.24,2.08-4.51,2.21-.75.08-1.51.1-2.32.12a20.05,20.05,0,0,0-4.18.4,10.62,10.62,0,0,0-6.6,4.85A12.93,12.93,0,0,0,.58,44.34,19.72,19.72,0,0,0,5.44,53a31,31,0,0,0,7.71,6,15.27,15.27,0,0,0,7.39,2.17,8.92,8.92,0,0,0,4.23-1c3.38-1.78,4.38-5,5.27-7.83.2-.67.42-1.36.66-2a11.65,11.65,0,0,1,5.9-6.59,19.85,19.85,0,0,1,2.13-.81c2.38-.81,5.08-1.74,6.25-4.51.94-2.21-.8-3.68-2.95-3.4L36,35.81a2.66,2.66,0,0,1-.61,0c-.07,0-.18-.21-.38-.77-.28-.8-.56-1.59-.83-2.38L53,13.86l2.12-.23a3.56,3.56,0,0,0,1.6-.59l.55.55c1.12,1.12,2.92-.63,1.77-1.77l-.79-.8c.12-.21.26-.44.41-.68l.93.93c1.12,1.12,2.92-.63,1.77-1.77L60.1,8.28l.44-.5L62,9.27C63.14,10.39,64.94,8.64,63.79,7.49ZM20.91,42.37,19.3,40.75,49,11.05l1.62,1.61ZM32.6,35.91a3.53,3.53,0,0,0,1.66,2.19,3.42,3.42,0,0,0,2,.19l6.08-.81.3,0c-.75,1.71-2.69,2.38-4.74,3.08a22,22,0,0,0-2.38.91,14.13,14.13,0,0,0-7.19,8c-.26.71-.49,1.43-.71,2.12-.84,2.72-1.58,5.07-4,6.37-3.19,1.68-7.16,0-9.25-1.16-4.58-2.54-10-7.29-11.34-13a10.35,10.35,0,0,1,1.22-7.67,8.07,8.07,0,0,1,5-3.73A18.93,18.93,0,0,1,13,32c.81,0,1.66,0,2.5-.13,3-.3,5.27-1.51,6.41-3.4A10,10,0,0,0,23,25.11,17.59,17.59,0,0,1,27.35,17a13.15,13.15,0,0,1,4-3.23,13.94,13.94,0,0,0-2,6.23h0a23.14,23.14,0,0,0,.2,5c.07.54.17,1.11.28,1.68l-13.2,13.2a1.27,1.27,0,0,0,0,1.77L20,45a1.27,1.27,0,0,0,1.77,0L32.16,34.66l.44,1.25ZM54.81,11.14l-2,.21L50.37,8.87l.48-2.37c.45-.44,2.06-1.13,5.06-1.47a23.35,23.35,0,0,1,4-.13,19.78,19.78,0,0,0-4.35,5.73A1,1,0,0,1,54.81,11.14Z"/><path class="cls-1" d="M10.28,37.68a1.26,1.26,0,1,0-.83-2.37c-1.71.6-4.3,1.51-4.3,5.37a1.26,1.26,0,0,0,2.51,0c0-2.08.93-2.41,2.62-3Z"/><path class="cls-1" d="M14.79,36.74a1.25,1.25,0,1,0-1.25-1.22A1.27,1.27,0,0,0,14.79,36.74Z"/></g></g></svg>