<svg xmlns="http://www.w3.org/2000/svg" viewBox="0 0 53.93 54.13"><defs><style>.cls-1,.cls-2,.cls-3{fill:#231f20;stroke:#fff;stroke-miterlimit:10;}.cls-1{stroke-width:0.25px;}.cls-2{stroke-width:0.75px;}.cls-3{stroke-width:0.5px;}</style></defs><title>Asset 25</title><g id="Layer_2" data-name="Layer 2"><g id="Layer_1-2" data-name="Layer 1"><path class="cls-1" d="M53.75,49.72,37.92,33.88A21,21,0,1,0,.12,21.33a21,21,0,0,0,33.56,16.8L49.51,54ZM2.12,21.33a19,19,0,1,1,19,19A19,19,0,0,1,2.12,21.33ZM35.69,36.42c.18-.17.36-.34.53-.52s.3-.29.44-.45L50.92,49.72l-1.41,1.41L35.25,36.87C35.4,36.73,35.54,36.57,35.69,36.42Z"/><path class="cls-2" d="M24,2.92a1.28,1.28,0,0,0,1.27-1.27,1.27,1.27,0,0,0-2.54-.06A1.29,1.29,0,0,0,24,2.92Z"/><path class="cls-3" d="M7,21.08a20.76,20.76,0,0,1,5.12-8.37,1.28,1.28,0,0,0-1.8-1.81,23.35,23.35,0,0,0-5.74,9.41A1.27,1.27,0,0,0,7,21.08Z"/><path class="cls-3" d="M13.76,10.7a1.28,1.28,0,1,0-1.27-1.33A1.29,1.29,0,0,0,13.76,10.7Z"/></g></g></svg>