<svg xmlns="http://www.w3.org/2000/svg" viewBox="0 0 46.25 60.25"><defs><style>.cls-1,.cls-2{fill:#231f20;stroke:#fff;stroke-miterlimit:10;}.cls-1{stroke-width:0.25px;}.cls-2{stroke-width:0.75px;}</style></defs><title>Asset 31</title><g id="Layer_2" data-name="Layer 2"><g id="Layer_1-2" data-name="Layer 1"><path class="cls-1" d="M41.14,43l-9.55-4.77a2.64,2.64,0,0,1-1.47-2.37V32.49c.23-.28.48-.6.72-1a22.83,22.83,0,0,0,3-5.8,4,4,0,0,0,2.32-3.62v-4a4,4,0,0,0-1-2.62V10.18A8.92,8.92,0,0,0,33,3.66C31,1.31,27.65.12,23.12.12s-7.85,1.19-9.9,3.53a9,9,0,0,0-2.1,6.53V15.5a4,4,0,0,0-1,2.62v4a4,4,0,0,0,1.5,3.11,21.1,21.1,0,0,0,3.5,7.24v3.31a2.63,2.63,0,0,1-1.37,2.32L4.83,43A9,9,0,0,0,.12,50.89v3.23c0,4.75,15.05,6,23,6s23-1.25,23-6v-3A9,9,0,0,0,41.14,43Zm3,11.11c0,1.36-7.41,4-21,4s-21-2.64-21-4V50.89a7,7,0,0,1,3.66-6.17l8.92-4.86a4.64,4.64,0,0,0,2.42-4.08v-4l-.23-.28a19,19,0,0,1-3.41-7.06l-.09-.4-.34-.22a2,2,0,0,1-.93-1.68v-4a2,2,0,0,1,.68-1.47l.32-.3V10a6.89,6.89,0,0,1,1.6-5c1.66-1.89,4.49-2.85,8.4-2.85s6.73,1,8.39,2.83a7,7,0,0,1,1.62,5v6.36l.34.3a2,2,0,0,1,.66,1.47v4A2,2,0,0,1,32.7,24l-.5.16-.16.49a20.78,20.78,0,0,1-2.83,5.72,13,13,0,0,1-.84,1.07l-.25.29v4.12A4.65,4.65,0,0,0,30.69,40l9.55,4.77a7,7,0,0,1,3.88,6.28Z"/><path class="cls-2" d="M35.49,59.55a1.27,1.27,0,1,0-1.27-1.33A1.28,1.28,0,0,0,35.49,59.55Z"/></g></g></svg>