<svg xmlns="http://www.w3.org/2000/svg" viewBox="0 0 54.25 54.25"><defs><style>.cls-1,.cls-2,.cls-3{fill:#231f20;stroke:#fff;stroke-miterlimit:10;}.cls-1{stroke-width:0.25px;}.cls-2{stroke-width:0.75px;}.cls-3{stroke-width:0.5px;}</style></defs><title>Asset 26</title><g id="Layer_2" data-name="Layer 2"><g id="Layer_1-2" data-name="Layer 1"><path class="cls-1" d="M27.12,13.12a14,14,0,1,0,14,14A14,14,0,0,0,27.12,13.12Zm0,26a12,12,0,1,1,12-12A12,12,0,0,1,27.12,39.12Z"/><path class="cls-1" d="M51.35,21.12h-2a22.81,22.81,0,0,0-2.26-5.45l1.42-1.43a2.76,2.76,0,0,0,0-3.93L43.94,5.76a2.85,2.85,0,0,0-3.93,0L38.58,7.18a23.13,23.13,0,0,0-5.46-2.26v-2A2.78,2.78,0,0,0,30.34.12H23.91A2.79,2.79,0,0,0,21.12,2.9v2a23,23,0,0,0-5.45,2.26L14.24,5.76a2.84,2.84,0,0,0-3.93,0L5.76,10.31a2.76,2.76,0,0,0,0,3.93l1.42,1.43a23.23,23.23,0,0,0-2.26,5.45h-2A2.79,2.79,0,0,0,.12,23.91v6.43A2.78,2.78,0,0,0,2.9,33.12h2a22.72,22.72,0,0,0,2.26,5.46L5.76,40a2.76,2.76,0,0,0,0,3.93l4.55,4.55a2.84,2.84,0,0,0,3.93,0l1.43-1.42a23.06,23.06,0,0,0,5.46,2.26v2a2.78,2.78,0,0,0,2.78,2.78h6.44a2.78,2.78,0,0,0,2.77-2.78v-2a22.72,22.72,0,0,0,5.46-2.26L40,48.49a2.84,2.84,0,0,0,3.93,0l4.55-4.55a2.76,2.76,0,0,0,0-3.93l-1.42-1.43a22.72,22.72,0,0,0,2.26-5.46h2a2.78,2.78,0,0,0,2.78-2.78V23.91A2.79,2.79,0,0,0,51.35,21.12Zm.78,9.22a.78.78,0,0,1-.78.78h-3.6l-.18.78A20.91,20.91,0,0,1,45,38.21l-.42.67,2.54,2.54a.8.8,0,0,1,0,1.11l-4.55,4.55a.79.79,0,0,1-1.11,0l-2.54-2.54-.67.42a20.91,20.91,0,0,1-6.31,2.61l-.78.18v3.59a.77.77,0,0,1-.78.78H23.91a.78.78,0,0,1-.79-.77v-3.6l-.77-.18A20.91,20.91,0,0,1,16,45l-.67-.42-2.54,2.54a.79.79,0,0,1-1.11,0L7.17,42.53a.8.8,0,0,1,0-1.11l2.54-2.54-.42-.67A20.91,20.91,0,0,1,6.68,31.9l-.18-.78H2.9a.78.78,0,0,1-.78-.78V23.91a.79.79,0,0,1,.78-.79H6.5l.18-.77A20.91,20.91,0,0,1,9.29,16l.42-.67L7.17,12.83a.8.8,0,0,1,0-1.11l4.55-4.55a.79.79,0,0,1,1.11,0l2.54,2.54L16,9.29a20.91,20.91,0,0,1,6.31-2.61l.77-.18V2.9a.79.79,0,0,1,.79-.78h6.43a.78.78,0,0,1,.78.78V6.5l.78.18a20.91,20.91,0,0,1,6.31,2.61l.67.42,2.54-2.54a.79.79,0,0,1,1.11,0l4.55,4.55a.8.8,0,0,1,0,1.11l-2.54,2.54L45,16a20.91,20.91,0,0,1,2.61,6.31l.18.77h3.59a.79.79,0,0,1,.79.79Z"/><path class="cls-1" d="M27.12,17.12a10,10,0,1,0,10,10A10,10,0,0,0,27.12,17.12Zm0,18a8,8,0,1,1,8-8A8,8,0,0,1,27.12,35.12Z"/><path class="cls-2" d="M22.87,20.62a1.27,1.27,0,0,0,0-2.54,1.27,1.27,0,1,0,0,2.54Z"/><path class="cls-3" d="M49.2,28.11a1.28,1.28,0,1,0-1.27-1.33A1.28,1.28,0,0,0,49.2,28.11Z"/><path class="cls-3" d="M42.77,45.26a1.28,1.28,0,1,0-1.27-1.33A1.28,1.28,0,0,0,42.77,45.26Z"/><path class="cls-3" d="M43,12a1.27,1.27,0,1,0-1.27-1.33A1.29,1.29,0,0,0,43,12Z"/><path class="cls-3" d="M27.75,5.67a1.28,1.28,0,1,0-1.27-1.33A1.28,1.28,0,0,0,27.75,5.67Z"/><path class="cls-3" d="M11.45,12.1a1.28,1.28,0,1,0-1.27-1.33A1.29,1.29,0,0,0,11.45,12.1Z"/><path class="cls-3" d="M4,29.18A1.27,1.27,0,1,0,2.7,27.85,1.28,1.28,0,0,0,4,29.18Z"/><path class="cls-3" d="M11,44a1.27,1.27,0,0,0,0-2.54A1.27,1.27,0,1,0,11,44Z"/><path class="cls-3" d="M27.35,50.42a1.28,1.28,0,1,0-1.27-1.33A1.29,1.29,0,0,0,27.35,50.42Z"/></g></g></svg>