<svg xmlns="http://www.w3.org/2000/svg" viewBox="0 0 60.25 51.25"><defs><style>.cls-1{fill:#fff;stroke:#fff;stroke-miterlimit:10;stroke-width:0.25px;}</style></defs><title>Asset 4</title><g id="Layer_2" data-name="Layer 2"><g id="Layer_1-2" data-name="Layer 1"><path class="cls-1" d="M57.12,9.12h-2v-3h-10v3h-4V3.33A3.21,3.21,0,0,0,37.92.12H22.33a3.21,3.21,0,0,0-3.21,3.21V9.12h-4v-3h-10v3h-2a3,3,0,0,0-3,3v36a3,3,0,0,0,3,3h54a3,3,0,0,0,3-3v-36A3,3,0,0,0,57.12,9.12Zm-10-1h6v1h-6Zm-26-4.79a1.22,1.22,0,0,1,1.21-1.21H37.92a1.21,1.21,0,0,1,1.2,1.21V9.12h-18Zm-2,7.79h31v38h-40v-38h9Zm-12-3h6v1h-6Zm-5,40v-36a1,1,0,0,1,1-1h5v38h-5A1,1,0,0,1,2.12,48.12Zm56,0a1,1,0,0,1-1,1h-5v-38h5a1,1,0,0,1,1,1Z"/><path class="cls-1" d="M4.29,48.18A1.39,1.39,0,1,0,2.9,46.82,1.42,1.42,0,0,0,4.29,48.18Z"/><path class="cls-1" d="M5.13,15.19a1.39,1.39,0,1,0-1.39-1.35A1.41,1.41,0,0,0,5.13,15.19Z"/><path class="cls-1" d="M54.91,15.56a1.39,1.39,0,1,0-1.39-1.35A1.41,1.41,0,0,0,54.91,15.56Z"/><path class="cls-1" d="M55.19,48.18a1.39,1.39,0,1,0-1.39-1.36A1.41,1.41,0,0,0,55.19,48.18Z"/></g></g></svg>