<svg xmlns="http://www.w3.org/2000/svg" viewBox="0 0 48.25 56.25"><defs><style>.cls-1{fill:#231f20;stroke:#fff;stroke-miterlimit:10;stroke-width:0.25px;}</style></defs><title>Asset 19</title><g id="Layer_2" data-name="Layer 2"><g id="Layer_1-2" data-name="Layer 1"><path class="cls-1" d="M21.42,39.42a1,1,0,0,0,0,1.41,1,1,0,0,0,1.41,0l12-12a1,1,0,0,0,0-1.41l-12-12a1,1,0,0,0-1.41,1.41L31.71,27.12H1.12a1,1,0,0,0,0,2H31.71Z"/><path class="cls-1" d="M47.12.12h-37a1,1,0,0,0-1,1v21a1,1,0,0,0,2,0v-20h35v52h-35v-20a1,1,0,0,0-2,0v21a1,1,0,0,0,1,1h37a1,1,0,0,0,1-1v-54A1,1,0,0,0,47.12.12Z"/><path class="cls-1" d="M44,6.1a1.27,1.27,0,1,0-1.27-1.33A1.29,1.29,0,0,0,44,6.1Z"/><path class="cls-1" d="M43.63,53.72a1.28,1.28,0,1,0-1.27-1.33A1.28,1.28,0,0,0,43.63,53.72Z"/></g></g></svg>