<svg xmlns="http://www.w3.org/2000/svg" viewBox="0 0 55.25 55.25"><defs><style>.cls-1,.cls-2{fill:#231f20;stroke:#fff;stroke-miterlimit:10;}.cls-1{stroke-width:0.25px;}.cls-2{stroke-width:0.75px;}</style></defs><title>Asset 30</title><g id="Layer_2" data-name="Layer 2"><g id="Layer_1-2" data-name="Layer 1"><path class="cls-1" d="M55.12,27.62A27.5,27.5,0,1,0,9.05,47.88l0,0,.9.75a1.18,1.18,0,0,0,.18.13c.47.4,1,.77,1.46,1.13l.49.35c.53.37,1.08.72,1.64,1l.37.21c.61.35,1.24.68,1.88,1l.14.06a27.3,27.3,0,0,0,6.65,2.11l.19,0c.72.13,1.45.23,2.19.29l.28,0c.73.07,1.48.1,2.23.1s1.49,0,2.23-.09l.28,0c.73-.07,1.46-.17,2.17-.29l.19,0a27.39,27.39,0,0,0,6.56-2.06l.23-.1c.61-.29,1.22-.61,1.81-.94l.44-.25c.53-.32,1.06-.65,1.58-1l.55-.39q.66-.48,1.29-1l.28-.21.92-.77,0,0A27.43,27.43,0,0,0,55.12,27.62Zm-53,0A25.5,25.5,0,1,1,44.54,46.69a7.65,7.65,0,0,0-.9-.54l-8.46-4.23a2.23,2.23,0,0,1-1.24-2V37c.2-.24.41-.52.62-.82A20.29,20.29,0,0,0,37.18,31a3.64,3.64,0,0,0,2.08-3.29V24.19a3.71,3.71,0,0,0-.88-2.37V17.16a8.1,8.1,0,0,0-1.89-5.87c-1.84-2.1-4.82-3.17-8.87-3.17s-7,1.07-8.86,3.17a8,8,0,0,0-1.88,5.87v4.66A3.65,3.65,0,0,0,16,24.19v3.55a3.62,3.62,0,0,0,1.34,2.82A18.82,18.82,0,0,0,20.42,37v2.89a2.22,2.22,0,0,1-1.16,2l-7.91,4.31a7.85,7.85,0,0,0-.75.48A25.44,25.44,0,0,1,2.12,27.62ZM42.58,48.26c-.35.25-.7.5-1.06.73l-.5.32c-.48.29-1,.57-1.45.83l-.32.17a26.09,26.09,0,0,1-3.49,1.48l-.13,0c-.62.21-1.26.39-1.9.55h0c-.64.16-1.3.29-2,.4h-.05c-.63.11-1.25.18-1.88.23l-.33,0c-.62.05-1.25.07-1.88.07s-1.26,0-1.89-.07l-.33,0c-.63-.05-1.26-.13-1.89-.23l-.08,0a24.86,24.86,0,0,1-3.89-1l-.12,0c-.63-.21-1.25-.45-1.86-.71h0q-.87-.37-1.71-.81l-.22-.12q-.76-.4-1.5-.87L13.68,49c-.45-.3-.9-.61-1.33-.93l-.14-.11.1-.05,7.91-4.31a4.24,4.24,0,0,0,2.2-3.72v-3.6L22.19,36a16.69,16.69,0,0,1-3-6.21l-.09-.4-.34-.22A1.66,1.66,0,0,1,18,27.74V24.19A1.63,1.63,0,0,1,18.55,23l.33-.3V17a6,6,0,0,1,1.39-4.36c1.45-1.65,3.93-2.49,7.36-2.49s5.9.83,7.35,2.47A6.08,6.08,0,0,1,36.38,17v5.7l.33.3a1.67,1.67,0,0,1,.55,1.22v3.55a1.66,1.66,0,0,1-1.18,1.57l-.5.16-.16.49a18.46,18.46,0,0,1-2.49,5,11.4,11.4,0,0,1-.74.95l-.25.29v3.69a4.21,4.21,0,0,0,2.34,3.79l8.47,4.23.16.08Z"/><path class="cls-2" d="M45.14,9.07a1.28,1.28,0,1,0-1.27-1.33A1.28,1.28,0,0,0,45.14,9.07Z"/></g></g></svg>