<svg xmlns="http://www.w3.org/2000/svg" viewBox="0 0 51.45 56.28"><defs><style>.cls-1{fill:#231f20;stroke:#fff;stroke-miterlimit:10;stroke-width:0.5px;}</style></defs><title>Asset 42</title><g id="Layer_2" data-name="Layer 2"><g id="Layer_1-2" data-name="Layer 1"><path class="cls-1" d="M40.54,17.94H38A1.09,1.09,0,0,0,36.9,19V38.59a7.15,7.15,0,0,0,6,7.06,9.12,9.12,0,0,1-18.19-.93v-24a12.24,12.24,0,1,0-24.47,0V41.84a1.1,1.1,0,0,0,2.19,0V20.72a10.05,10.05,0,0,1,20.1,0v24a11.3,11.3,0,0,0,22.56,1,7.16,7.16,0,0,0,6.1-7.08V19a1.09,1.09,0,0,0-1.09-1.1H47.72V3.84a3.59,3.59,0,1,0-7.18,0v14.1ZM39.08,24.7H49v3.93H39.08ZM42.72,3.84a1.41,1.41,0,0,1,2.81,0V6.39H42.72V3.84Zm0,4.73h2.81v9.37H42.72ZM49,20.13v2.38H39.08V20.13Zm0,18.46a5,5,0,1,1-9.94,0V30.82H49Z"/><path class="cls-1" d="M1.34,45.08A1.11,1.11,0,0,0,.25,46.16a1.1,1.1,0,1,0,2.19,0A1.12,1.12,0,0,0,1.34,45.08Z"/></g></g></svg>