<?xml version="1.0"?>
<svg xmlns="http://www.w3.org/2000/svg" id="icons" enable-background="new 0 0 64 64" height="512px" viewBox="0 0 64 64" width="512px" class=""><g><path d="m57.007 15c-.003 0-.005-.001-.007-.001h-4.001c-2.757 0-4.999-2.242-4.999-4.999 0-1.655-1.347-3.002-3.002-3.002-.004 0-.006.002-.01.002h-13.988c-1.65 0-2.993 1.341-2.997 2.99 0 .003-.002.006-.002.009 0 2.757-2.243 5-5 5h-4.992v-1.999c0-.553-.447-1-1-1h-10.009c-.553 0-1 .447-1 1v2.08c-3.387.488-6 3.401-6 6.92v28.002c0 3.859 3.141 7 7 7h50c3.859 0 7-3.141 7-7v-28.002c0-3.857-3.137-6.996-6.993-7zm-49.007-.001v-.999h8.009v.999zm-6 35.003v-28.002c0-2.757 2.243-5 5-5 .002 0 .003-.001.005-.001h3.995c.002 0 .003.001.005.001 2.757 0 5 2.243 5 5v27.993c0 .002-.001.003-.001.005 0 2.757-2.243 5-5 5-.007 0-.013.004-.02.004h-3.984c-2.757 0-5-2.243-5-5zm60 0c0 2.757-2.243 5-5 5h-41.111c1.302-1.271 2.113-3.04 2.115-4.997 0-.003.001-.005.001-.007v-27.998c0-1.958-.812-3.729-2.112-5.001h1.111c.002 0 .003.001.005.001s.003-.001.005-.001h5.987c3.857 0 6.997-3.138 7-6.995 0-.002.001-.004.001-.006 0-.551.447-.998.998-.998h13.998c.002 0 .003-.001.005-.001.55.003.997.45.997 1.001 0 3.859 3.14 6.999 6.999 6.999h3.996c.002 0 .003.001.005.001 2.757 0 5 2.243 5 5z" data-original="#000000" class="active-path" data-old_color="#000000" fill="#FFFFFF"/><path d="m38.002 22.997c-7.168 0-13 5.832-13 13s5.832 13 13 13 13-5.832 13-13-5.832-13-13-13zm0 24c-6.065 0-11-4.935-11-11s4.935-11 11-11 11 4.935 11 11-4.935 11-11 11z" data-original="#000000" class="active-path" data-old_color="#000000" fill="#FFFFFF"/><path d="m38.002 26.997c-.553 0-1 .447-1 1s.447 1 1 1c3.859 0 7 3.141 7 7 0 .553.447 1 1 1s1-.447 1-1c0-4.963-4.037-9-9-9z" data-original="#000000" class="active-path" data-old_color="#000000" fill="#FFFFFF"/><path d="m32.999 12.999h10.002c.553 0 1-.447 1-1s-.447-1-1-1h-10.002c-.553 0-1 .447-1 1s.447 1 1 1z" data-original="#000000" class="active-path" data-old_color="#000000" fill="#FFFFFF"/><path d="m36 14c-.553 0-1 .447-1 1s.447 1 1 1h4c.553 0 1-.447 1-1s-.447-1-1-1z" data-original="#000000" class="active-path" data-old_color="#000000" fill="#FFFFFF"/><path d="m54.256 31.025c-2.131-6.955-8.609-12.028-16.254-12.028-9.374 0-17 7.626-17 17s7.626 17 17 17c7.643 0 14.12-5.071 16.254-12.023 2.636-.137 4.744-2.306 4.744-4.975s-2.107-4.837-4.744-4.974zm-16.254 19.972c-8.271 0-15-6.729-15-15s6.729-15 15-15 15 6.729 15 15-6.729 15-15 15zm16.734-12.101c.163-.944.266-1.909.266-2.899 0-.989-.103-1.952-.266-2.896 1.297.331 2.264 1.5 2.264 2.898 0 1.399-.967 2.567-2.264 2.897z" data-original="#000000" class="active-path" data-old_color="#000000" fill="#FFFFFF"/></g> </svg>
