<svg xmlns="http://www.w3.org/2000/svg" viewBox="0 0 48.63 67.67"><defs><style>.cls-1{fill:#231f20;stroke:#fff;stroke-miterlimit:10;stroke-width:0.5px;}</style></defs><title>Asset 59</title><g id="Layer_2" data-name="Layer 2"><g id="Layer_1-2" data-name="Layer 1"><path class="cls-1" d="M.27,43.37a24.06,24.06,0,0,0,48.11,0V7.23a7,7,0,0,0-14,0V18a7,7,0,0,0-9.9,1.18c-1.58-2.22-4-2.7-6.5-2.7a6.31,6.31,0,0,0-3.72,1.21V6.63A6.38,6.38,0,0,0,7.91.25H6.63A6.38,6.38,0,0,0,.25,6.63ZM30.05,19.13a4.36,4.36,0,0,1,4.36,4.12v11a6.86,6.86,0,0,0-4.29-1.5H25.68V23.46A4.35,4.35,0,0,1,30.05,19.13Zm-12,0H19.3C23,19.13,23,23,23,25.66v7.12H14.29c0-3.15-.23-6.4.06-9.55C14.56,21,15.53,19.13,18,19.13ZM2.9,6.63A3.73,3.73,0,0,1,6.63,2.9H7.91a3.73,3.73,0,0,1,3.73,3.73V32.78H2.9Zm34.16.6a4.34,4.34,0,0,1,8.67,0V43.37a21.41,21.41,0,0,1-42.81,0l0-7.94H30.12a4.32,4.32,0,0,1,4.29,4.12h0a.34.34,0,0,0,0,.1v.11a4.32,4.32,0,0,1-4.3,4.33h-11a1.33,1.33,0,0,0,0,2.65h11a7,7,0,0,0,7-7Z"/><path class="cls-1" d="M13.71,44A1.32,1.32,0,1,0,15,45.32,1.34,1.34,0,0,0,13.71,44Z"/></g></g></svg>