<svg xmlns="http://www.w3.org/2000/svg" width="13.766" height="12.623" viewBox="0 0 13.766 12.623">
  <path fill="rgb(111,126,130)" fill-rule="evenodd" d="M6.88311768 1.43762207C7.63336182.55712891 8.78286743 0 9.98052978 0c2.11999512 0 3.78570557 1.66467285 3.78570557 3.7833252 0 2.60021972-2.340271 4.71887207-5.8850708 7.93139648l-.99804687.90795898-.99804688-.90112304C2.340271 8.50219727 0 6.38354492 0 3.7833252 0 1.66467285 1.66571045 0 3.78570557 0c1.19766235 0 2.34713745.5571289 3.0974121 1.43762207zm0 9.32788086l.06881713-.06884766c3.2763672-2.96472168 5.43768311-4.9251709 5.43768311-6.913208 0-1.37573243-1.0324707-2.40759278-2.40911865-2.40759278-1.05999756 0-2.09246826.68103028-2.45037842 1.62341309h-1.2871399c-.36480712-.94238281-1.39727782-1.62341309-2.45727538-1.62341309-1.37661744 0-2.40908814 1.03186035-2.40908814 2.40759278 0 1.9880371 2.1612854 3.94848632 5.43765259 6.913208l.06884766.06884766z"/>
</svg>
