<?xml version="1.0"?>
<svg xmlns="http://www.w3.org/2000/svg" height="512px" viewBox="-58 0 512 512" width="512px"><g><path d="m38.917969 369.550781c-21.996094 3.308594-38.917969 22.335938-38.917969 45.242188v23.917969c0 10.257812 8.347656 18.601562 18.605469 18.601562h111.511719c6.882812 31.238281 34.769531 54.6875 68.042968 54.6875 33.277344 0 61.160156-23.449219 68.042969-54.6875h111.515625c10.257812 0 18.601562-8.34375 18.601562-18.601562v-23.917969c0-22.90625-16.917968-41.933594-38.917968-45.242188v-.511719h-318.484375zm0 0" data-original="#000000" class="active-path" data-old_color="#000000" fill="#FFFEFE"/><path d="m357.402344 212.238281c0-71.148437-47.789063-131.34375-112.953125-150.1875 0-.042969.007812-.085937.007812-.128906v-12.9375c0-27.007813-20.769531-48.984375-46.296875-48.984375s-46.296875 21.976562-46.296875 48.984375v12.9375c0 .046875.007813.085937.007813.132813-65.164063 18.839843-112.953125 79.035156-112.953125 150.183593v126.800781h318.484375zm-142.945313-155.730469c-4.40625-.375-8.859375-.578124-13.363281-.578124h-5.867188c-4.5 0-8.957031.203124-13.363281.578124v-7.523437c0-10.464844 7.3125-18.984375 16.296875-18.984375 8.988282 0 16.296875 8.519531 16.296875 18.984375zm0 0" data-original="#000000" class="active-path" data-old_color="#000000" fill="#FFFEFE"/></g> </svg>
