<?xml version="1.0"?>
<svg xmlns="http://www.w3.org/2000/svg" height="512px" viewBox="0 0 60 60" width="512px"><g><g id="Page-1" fill="none" fill-rule="evenodd"><g id="027---Pencil" fill="rgb(0,0,0)" fill-rule="nonzero"><path id="Shape" d="m45.5 7.422c.3904999.39038194 1.0235001.39038194 1.414 0 1.294-1.295 2-.811 2.144-.692.3951597.38659932 1.0289007.37965974 1.4155-.0155s.3796597-1.02890068-.0155-1.4155c-.4256906-.39499109-.9633739-.64828567-1.539-.725-1.3057606-.11091809-2.5830404.42479975-3.419 1.434-.3903819.39049985-.3903819 1.02350015 0 1.414z" data-original="#000000" class="active-path" data-old_color="#000000" fill="#FFFEFE"/><path id="Shape" d="m2.976 60h21.024c.5522847 0 1-.4477153 1-1s-.4477153-1-1-1h-14.052l8.263-2.543c.467391-.1444988.8926159-.400526 1.239-.746l1.26-1.26 26.909-26.909 5.665-5.666 4.957-4.957c2.3452282-2.3480308 2.3452282-6.1519692 0-8.5l-5.665-5.66c-2.3460874-2.34520676-6.1489126-2.34520676-8.495 0l-5.362 5.361-5.261 5.261-26.909 26.91-1.26 1.259c-.3452835.3465328-.60128068.7717078-.746 1.239l-4.406 14.317c-.28309559.9067106-.12006087 1.8939221.43953223 2.6614655.5595931.7675433 1.4496224 1.2247246 2.39946777 1.2325345zm.324-2.047c-.35447258.1061045-.73857972.0090573-1.00011333-.2526852-.26153361-.2617426-.35827411-.645927-.25188667-1.0003148l1.173-3.812c1.85922336.5845455 3.31545447 2.0407766 3.9 3.9zm17.41-10.165c-.5012405-.4959819-1.12626-.8485481-1.81-1.021l18.1-18.101c.3789722-.3923789.3735524-1.0160848-.0121814-1.4018186s-1.0094397-.3911536-1.4018186-.0121814l-18.1 18.1c-.3383201-1.4019736-1.4336691-2.4961639-2.836-2.833l1.109-1.109c.3893607-.3921222.3871221-1.0256392-.005-1.415-.3921222-.3893607-1.0256392-.3871221-1.415.005l-1.1 1.1c-.3510574-1.3958627-1.4423977-2.4848965-2.839-2.833l23.765-23.767 2.835 2.837-19.121 19.121c-.2599566.2510745-.3642126.6228779-.2726972.9725073.0915155.3496295.3645604.6226744.7141899.7141899.3496294.0915154.7214328-.0127406.9725073-.2726972l19.121-19.121 2.835 2.835-2.125 2.125c-.2599566.2510745-.3642126.6228779-.2726972.9725073.0915155.3496295.3645604.6226744.7141899.7141899.3496294.0915154.7214328-.0127406.9725073-.2726972l2.125-2.125 2.837 2.834-23.768 23.766c-.1732726-.6842152-.5260898-1.3097581-1.022-1.812zm26.2-23.368-3.54-3.541-7.79-7.79 3.911-3.911.34-.34 11.332 11.331zm-1.41-21.247c1.5653161-1.56389122 4.1016839-1.56389122 5.667 0l5.665 5.665c1.562239 1.5659996 1.562239 4.1010004 0 5.667l-4.25 4.25-11.337-11.332zm-39.04 39.2c.04825422-.1553134.13333711-.2966608.248-.412l1.26-1.259c.50678123-.5058881 1.2449545-.7029834 1.93645706-.517042.69150254.1859414 1.23127874.7266705 1.41600004 1.4185s-.0136758 1.4296539-.5204571 1.935542c-.1364722.1426995-.2258331.3238648-.256.519-.0186509.0612563-.0310476.1242446-.037.188.0000863.4043959.2437275.7689341.6173454.923678.373618.1547439.8036603.0692299 1.0896546-.216678.7828636-.7828636 2.0521364-.7828636 2.835 0s.7828636 2.0521364 0 2.835c-.2763202.2470055-.3933641.6265802-.3041326.9863055s.3701018.6405956.7298271.7298271.7393-.0278124.9863055-.3041326c.5067812-.5071385 1.2456216-.7053892 1.938207-.5200731.6925855.1853162 1.2336958.7260454 1.4195 1.4185.1858042.6924547-.0119258 1.4314346-.518707 1.9385731l-1.26 1.26c-.1154003.1150867-.2571808.2002237-.413.248l-8.6 2.646c-.77675561-2.4905627-2.72728848-4.4407218-5.218-5.217z" data-original="#000000" class="active-path" data-old_color="#000000" fill="#FFFEFE"/><path id="Shape" d="m32 60c.5522847 0 1-.4477153 1-1s-.4477153-1-1-1h-3c-.5522847 0-1 .4477153-1 1s.4477153 1 1 1z" data-original="#000000" class="active-path" data-old_color="#000000" fill="#FFFEFE"/></g></g></g> </svg>
