<svg id="Layer_1" enable-background="new 0 0 511.787 511.787" height="512" viewBox="0 0 511.787 511.787" width="512" xmlns="http://www.w3.org/2000/svg"><g><path d="m255.893 147.111c-59.982 0-108.782 48.8-108.782 108.783s48.8 108.782 108.782 108.782 108.782-48.799 108.782-108.782-48.799-108.783-108.782-108.783zm0 183.857c-41.396 0-75.074-33.678-75.074-75.075s33.678-75.075 75.074-75.075 75.074 33.678 75.074 75.075-33.677 75.075-75.074 75.075z"/><circle cx="255.893" cy="255.893" r="45.074"/><path d="m511.787 285.997v-60.207l-73.811-13.125c-4.66-19.701-12.435-38.196-22.775-54.941l42.923-61.489-42.573-42.573-61.489 42.923c-16.745-10.341-35.239-18.115-54.941-22.775l-13.124-73.81h-60.207l-13.124 73.811c-19.702 4.66-38.196 12.435-54.941 22.775l-61.489-42.923-42.573 42.573 42.923 61.489c-10.34 16.745-18.115 35.239-22.775 54.941l-73.811 13.124v60.207l73.811 13.125c4.66 19.701 12.434 38.196 22.775 54.941l-42.923 61.489 42.573 42.572 61.489-42.923c16.745 10.341 35.239 18.115 54.941 22.775l13.124 73.811h60.207l13.125-73.811c19.702-4.66 38.196-12.435 54.941-22.775l61.489 42.923 42.573-42.572-42.925-61.49c10.341-16.745 18.115-35.239 22.775-54.941zm-255.894 108.679c-76.524 0-138.782-62.257-138.782-138.782s62.258-138.783 138.782-138.783 138.782 62.258 138.782 138.783-62.257 138.782-138.782 138.782z"/></g></svg>