<svg xmlns="http://www.w3.org/2000/svg" viewBox="0 0 58.25 58.25"><defs><style>.cls-1,.cls-2{fill:#231f20;stroke:#fff;stroke-miterlimit:10;}.cls-1{stroke-width:0.25px;}.cls-2{stroke-width:0.75px;}</style></defs><title>Asset 16</title><g id="Layer_2" data-name="Layer 2"><g id="Layer_1-2" data-name="Layer 1"><path class="cls-1" d="M50.81,48.35a28.93,28.93,0,0,0-.56-39.06h0A28.92,28.92,0,0,0,30.13.15h0l-.57,0h-.87l-.57,0h0A28.92,28.92,0,0,0,8,9.28H8a28.9,28.9,0,0,0-.56,39.06,0,0,0,0,0,0,0,.34.34,0,0,1,.06.06A29,29,0,0,0,28.12,58.1h0l.56,0h.88l.57,0h0a28.92,28.92,0,0,0,20.62-9.69.1.1,0,0,0,0,0S50.81,48.36,50.81,48.35ZM2.15,30.12h12a37,37,0,0,0,2.42,12.22,36.9,36.9,0,0,0-8.11,4.13A26.86,26.86,0,0,1,2.15,30.12ZM9,11.15A36.89,36.89,0,0,0,16.9,15a37,37,0,0,0-2.75,13.09h-12A26.9,26.9,0,0,1,9,11.15Zm47.1,17h-12A37.18,37.18,0,0,0,41.35,15a36.89,36.89,0,0,0,7.9-3.88A26.9,26.9,0,0,1,56.1,28.12Zm-28-13a34.92,34.92,0,0,1-8.47-1.28,35,35,0,0,1,8.47-11Zm0,2v11h-12a35.11,35.11,0,0,1,2.67-12.47A37.27,37.27,0,0,0,28.12,17.09Zm2,0a37.28,37.28,0,0,0,9.31-1.44A35.11,35.11,0,0,1,42.1,28.12h-12Zm0-2V2.77a34.88,34.88,0,0,1,8.48,11A35.42,35.42,0,0,1,30.12,15.09ZM40.53,13.2A36.82,36.82,0,0,0,32.65,2.36,27,27,0,0,1,47.83,9.68,34.81,34.81,0,0,1,40.53,13.2Zm-22.81,0a34.81,34.81,0,0,1-7.3-3.52A27,27,0,0,1,25.6,2.36,37,37,0,0,0,17.72,13.2ZM16.15,30.12h12v10a37.34,37.34,0,0,0-9.66,1.54A35.25,35.25,0,0,1,16.15,30.12Zm12,12V55.48a34.9,34.9,0,0,1-8.88-11.92A35.32,35.32,0,0,1,28.12,42.16Zm2,13.32V42.16A35.33,35.33,0,0,1,39,43.56,34.8,34.8,0,0,1,30.12,55.48Zm0-15.32v-10h12a35.12,35.12,0,0,1-2.32,11.59A36.8,36.8,0,0,0,30.12,40.16Zm14-10h12a26.86,26.86,0,0,1-6.31,16.35,36.9,36.9,0,0,0-8.11-4.13A37,37,0,0,0,44.1,30.12ZM9.82,48a35,35,0,0,1,7.51-3.78,37.1,37.1,0,0,0,8.27,11.7A27,27,0,0,1,9.82,48Zm22.83,7.92a37.1,37.1,0,0,0,8.27-11.7A35,35,0,0,1,48.43,48,27,27,0,0,1,32.65,55.89Z"/><path class="cls-2" d="M45.16,46.3A1.27,1.27,0,1,0,43.89,45,1.29,1.29,0,0,0,45.16,46.3Z"/><path class="cls-2" d="M13,13.66a1.28,1.28,0,1,0-1.27-1.33A1.29,1.29,0,0,0,13,13.66Z"/></g></g></svg>